<?xml version="1.0" standalone="no"?>
<!DOCTYPE svg PUBLIC "-//W3C//DTD SVG 20010904//EN"
 "http://www.w3.org/TR/2001/REC-SVG-20010904/DTD/svg10.dtd">
<svg version="1.0" xmlns="http://www.w3.org/2000/svg"
 width="1347.000000pt" height="1347.000000pt" viewBox="0 0 1347.000000 1347.000000"
 preserveAspectRatio="xMidYMid meet">
<metadata>
Created by potrace 1.14, written by Peter Selinger 2001-2017
</metadata>
<g transform="translate(0.000000,1347.000000) scale(0.100000,-0.100000)"
fill="#000000" stroke="none">
<path d="M11930 12945 c-25 -6 -56 -16 -70 -22 -54 -23 -95 -40 -102 -42 -4
-1 -27 -10 -50 -20 -24 -10 -65 -26 -93 -36 -27 -9 -64 -24 -82 -31 -17 -8
-37 -14 -45 -14 -8 0 -18 -4 -24 -9 -5 -5 -27 -14 -49 -21 -45 -13 -183 -65
-232 -86 -18 -8 -50 -22 -70 -31 -21 -9 -49 -22 -63 -28 -14 -7 -90 -34 -170
-60 -158 -52 -262 -94 -385 -157 -44 -23 -139 -72 -211 -110 -72 -37 -169 -83
-215 -101 -46 -19 -110 -50 -141 -71 -31 -20 -61 -36 -67 -36 -5 0 -11 -3 -13
-8 -1 -4 -32 -30 -67 -57 -70 -55 -71 -55 -222 -200 -182 -175 -351 -326 -380
-339 -10 -5 -19 -13 -19 -17 0 -10 -117 -93 -145 -103 -11 -4 -73 -14 -138
-21 -112 -12 -163 -12 -197 2 -8 3 -19 7 -25 8 -5 2 -37 10 -70 19 -37 9 -109
16 -185 17 l-125 1 -130 -46 c-71 -26 -202 -82 -290 -126 -88 -43 -178 -81
-200 -84 -95 -11 -203 -46 -361 -116 l-52 -23 -38 28 c-66 48 -234 209 -234
225 0 3 -34 41 -77 84 -85 86 -166 140 -233 156 -52 12 -189 15 -240 6 -19 -4
-46 -8 -60 -10 -14 -2 -32 -6 -40 -9 -51 -19 -116 -37 -130 -37 -9 0 -28 12
-42 28 -14 15 -50 48 -79 74 -30 26 -68 59 -85 75 -16 15 -47 37 -67 48 -20
11 -37 22 -37 26 0 3 -6 6 -12 7 -20 1 -203 69 -240 88 -18 9 -67 40 -108 69
-58 41 -163 101 -182 106 -2 0 -30 7 -63 15 -33 8 -92 17 -132 19 -42 3 -101
16 -140 31 -196 73 -123 67 -663 59 -267 -4 -555 -8 -640 -10 -380 -9 -712
-16 -1055 -20 -632 -8 -927 -15 -1010 -22 -44 -4 -84 -7 -90 -8 -32 -1 -165
-102 -165 -125 0 -5 -4 -10 -8 -10 -14 0 -42 -103 -47 -171 -8 -110 -23 -796
-40 -1759 -11 -665 -24 -1245 -40 -1780 -3 -96 -7 -252 -10 -347 -6 -224 -13
-440 -20 -633 -3 -85 -7 -225 -10 -310 -3 -85 -7 -193 -10 -240 -8 -125 -17
-388 -30 -905 -24 -957 -29 -1117 -40 -1430 -17 -466 -22 -875 -12 -915 8 -32
43 -95 72 -128 67 -76 175 -130 295 -147 39 -5 133 -54 142 -73 5 -12 112 -61
168 -76 67 -19 169 -21 230 -6 25 6 54 13 65 14 11 2 28 6 37 10 40 14 48 15
48 6 0 -6 37 -37 83 -70 45 -33 88 -65 95 -70 6 -6 12 -8 12 -5 0 4 14 -3 30
-15 26 -18 55 -66 64 -105 2 -5 26 -57 54 -115 34 -68 58 -133 68 -185 17 -85
60 -195 81 -208 7 -4 13 -12 13 -16 0 -9 78 -89 107 -109 23 -16 169 -86 203
-97 3 -1 22 -5 43 -9 20 -5 40 -12 43 -17 3 -5 10 -7 15 -4 5 4 15 3 22 -2 6
-4 17 -8 22 -8 12 -1 121 -15 152 -20 12 -2 69 1 126 7 132 13 145 8 263 -115
154 -159 233 -236 264 -254 17 -9 30 -21 30 -25 0 -4 4 -8 9 -8 5 0 35 -12 67
-27 33 -15 62 -28 67 -29 4 -1 8 -2 10 -4 5 -4 54 -9 103 -11 67 -2 149 18
199 49 68 42 120 77 123 84 2 3 18 18 37 32 l33 26 59 -27 c32 -14 65 -28 74
-29 9 -2 29 -9 45 -15 16 -7 37 -14 47 -16 27 -5 91 -39 123 -66 120 -100 237
-131 414 -110 25 3 79 7 120 8 138 5 203 36 345 166 112 102 204 179 213 179
6 0 36 -106 55 -195 7 -32 77 -134 125 -183 67 -68 137 -113 207 -132 28 -7
56 -17 63 -23 6 -5 12 -7 12 -3 0 4 13 0 30 -9 42 -22 141 -128 215 -231 90
-124 147 -179 230 -220 61 -30 80 -35 150 -36 44 -1 96 2 115 7 19 4 42 9 50
10 8 1 29 8 45 14 17 7 108 32 203 56 95 25 195 56 222 71 43 23 132 107 180
170 19 25 55 130 75 220 15 69 17 72 58 90 23 11 45 18 49 16 5 -1 8 2 8 8 0
5 5 10 10 10 6 0 17 6 25 12 49 43 86 82 101 108 10 16 21 30 25 30 4 0 10 10
14 23 4 12 9 27 11 32 18 54 33 125 29 145 -2 14 -13 97 -25 185 -11 88 -23
179 -27 203 -5 38 -2 48 28 90 18 26 36 49 39 52 10 7 46 109 64 178 9 33 22
72 30 86 l14 27 30 -53 c56 -98 136 -166 222 -189 55 -14 81 -15 145 -4 28 5
52 9 55 9 3 1 21 11 41 24 20 12 41 22 48 22 6 0 11 5 11 10 0 6 7 13 16 17
20 7 37 22 145 126 146 138 181 216 180 390 -1 105 -3 130 -15 159 -7 15 7 56
24 68 3 3 17 30 30 60 18 42 25 79 28 152 4 88 8 103 36 150 32 53 29 52 136
79 8 2 19 7 25 12 5 4 33 22 60 40 28 17 64 46 80 63 28 29 108 157 111 176 1
4 2 13 3 18 0 6 29 -4 64 -22 72 -37 71 -36 157 -44 59 -5 82 -1 179 27 7 2
54 25 104 51 50 27 94 48 98 48 4 0 42 23 83 50 42 28 78 50 81 50 3 0 13 8
23 17 10 10 47 43 83 73 70 59 219 210 259 261 60 77 242 257 315 311 162 118
222 191 274 328 15 41 32 84 36 95 11 30 14 58 15 188 1 118 14 187 46 262 10
22 18 43 18 47 1 3 4 10 9 14 4 4 7 17 7 28 0 12 7 32 16 44 8 12 13 22 10 22
-4 0 34 100 53 138 22 45 45 99 48 116 2 11 8 25 13 31 5 7 7 15 4 18 -3 3 -2
11 2 18 4 7 9 27 11 44 1 16 5 46 9 65 7 36 7 42 19 169 3 41 10 82 15 91 5
10 7 19 5 22 -9 9 56 234 92 317 34 80 90 189 102 201 12 10 39 77 55 135 9
33 20 67 23 75 18 46 18 152 0 265 -15 92 -15 153 -1 215 14 61 9 201 -10 250
-9 25 -18 50 -19 55 -1 6 -5 12 -9 15 -4 3 -9 16 -10 29 -2 19 9 30 62 62 80
49 124 97 150 168 19 48 21 77 21 325 1 247 -2 454 -17 946 -3 96 -7 249 -9
340 -3 91 -7 253 -10 360 -3 107 -8 274 -10 370 -2 96 -7 258 -10 360 -3 102
-8 277 -10 390 -10 408 -14 556 -30 1045 -9 269 -15 348 -33 398 -47 134 -202
217 -342 182z m-152 -682 c1 -32 3 -132 6 -223 3 -91 8 -262 11 -380 3 -118 7
-294 10 -390 10 -385 15 -564 20 -760 3 -113 7 -272 10 -355 17 -549 23 -763
30 -1115 3 -157 8 -336 11 -398 5 -119 1 -152 -20 -152 -51 0 -193 -105 -236
-175 -72 -117 -66 -291 15 -430 15 -25 24 -45 20 -45 -4 0 2 -16 14 -35 17
-30 19 -44 13 -93 -4 -31 -6 -106 -6 -167 2 -104 4 -134 19 -230 4 -27 1 -48
-9 -65 -57 -95 -178 -361 -196 -430 -56 -221 -72 -289 -84 -375 -9 -55 -16
-118 -17 -140 -2 -68 -20 -147 -44 -195 -24 -46 -36 -75 -41 -98 -1 -7 -12
-31 -23 -53 -12 -23 -32 -77 -45 -122 -14 -45 -30 -95 -37 -112 -7 -16 -13
-32 -14 -35 -1 -3 -4 -12 -8 -20 -52 -135 -66 -234 -45 -335 8 -38 7 -57 -3
-80 -7 -16 -13 -32 -14 -35 -4 -21 -28 -50 -40 -50 -8 0 -15 -4 -15 -10 0 -5
-6 -10 -13 -10 -34 0 -262 -212 -382 -356 -22 -26 -50 -59 -62 -71 -13 -13
-23 -27 -23 -32 0 -14 -226 -220 -253 -230 -6 -2 -20 -12 -31 -23 -18 -16 -25
-19 -41 -17 -3 0 -26 -11 -51 -26 -48 -28 -47 -28 -97 17 -11 9 -51 28 -90 43
-119 44 -223 29 -341 -49 -64 -43 -225 -211 -252 -264 -26 -52 -44 -72 -64
-72 -9 0 -44 -14 -77 -30 -131 -66 -285 -262 -359 -460 -8 -19 -14 -72 -15
-117 -1 -49 -6 -83 -12 -83 -6 0 -7 -3 -4 -6 4 -4 -1 -19 -11 -33 -36 -54 -64
-123 -72 -182 -5 -34 -10 -63 -12 -65 -2 -2 -21 10 -41 27 -20 16 -62 42 -94
57 -52 24 -69 27 -168 27 -100 0 -116 -3 -172 -29 -88 -40 -172 -130 -278
-297 -57 -90 -105 -214 -129 -329 -3 -14 -16 -36 -28 -50 -36 -40 -75 -100
-105 -165 -25 -53 -28 -71 -28 -160 1 -76 6 -114 22 -160 19 -54 35 -188 23
-198 -3 -2 -26 -16 -52 -30 -57 -33 -141 -116 -174 -172 -21 -36 -42 -107 -59
-205 -15 -82 -20 -87 -78 -95 -29 -4 -93 -20 -144 -35 l-92 -28 -28 43 c-64
97 -249 293 -328 347 -45 31 -168 78 -202 78 -13 0 -23 5 -23 11 0 5 -4 7 -10
4 -5 -3 -10 -3 -11 2 0 4 -2 15 -4 23 -13 61 -18 85 -31 160 -36 199 -91 292
-215 362 -95 54 -187 60 -306 20 -32 -11 -76 -25 -98 -32 -51 -16 -169 -72
-216 -102 -44 -28 -113 -86 -203 -172 -65 -62 -68 -63 -134 -69 -37 -4 -76 -8
-87 -11 -14 -3 -36 9 -65 35 -55 49 -144 92 -244 119 -42 11 -84 24 -94 29
-128 66 -212 86 -329 79 -110 -7 -203 -40 -279 -99 -30 -24 -61 -48 -69 -53
-9 -7 -26 3 -59 34 -25 24 -46 47 -46 52 0 13 -171 182 -225 223 -62 47 -159
92 -250 115 -56 15 -95 18 -195 14 -200 -7 -213 -6 -290 23 -8 3 -24 8 -34 10
-25 4 -26 5 -31 34 -17 89 -43 167 -83 249 -26 52 -46 98 -44 103 1 4 -3 7 -9
7 -5 0 -8 4 -5 9 4 5 3 11 -2 13 -4 1 -21 35 -37 73 -62 149 -152 251 -268
302 -15 7 -65 49 -112 94 -136 132 -190 159 -314 159 -66 0 -114 -11 -225 -49
-75 -27 -76 -26 -112 7 -64 58 -135 104 -194 124 l-61 20 6 72 c3 39 8 157 10
261 3 105 7 228 10 275 2 47 6 184 9 305 4 121 9 285 11 365 2 80 7 255 10
390 3 135 8 319 10 410 3 91 7 253 10 360 6 210 12 393 20 560 15 323 21 475
30 805 3 94 7 244 10 335 3 91 7 248 10 350 3 102 7 262 10 355 8 257 17 721
30 1440 3 165 7 395 10 510 2 116 7 350 11 520 3 171 7 359 8 418 2 78 6 111
16 117 7 4 67 8 134 8 372 -2 1870 24 2161 37 44 2 188 7 320 10 l241 7 97
-47 c104 -50 116 -52 253 -59 83 -3 134 -18 134 -38 0 -5 7 -8 15 -8 8 0 15
-4 15 -8 0 -5 19 -19 41 -33 23 -13 58 -34 78 -47 54 -33 97 -51 191 -82 95
-29 102 -34 207 -135 115 -109 231 -179 341 -205 78 -18 176 -8 289 30 112 37
147 36 164 -7 8 -23 183 -203 250 -258 199 -165 302 -208 484 -204 63 2 115 7
115 11 0 4 4 7 8 5 8 -2 45 14 145 65 31 16 57 27 57 23 0 -3 10 1 23 9 20 13
45 18 152 31 74 10 202 64 347 149 25 15 56 29 68 31 12 2 27 8 34 13 6 5 51
21 99 37 l88 28 92 -28 c51 -15 108 -30 127 -33 88 -15 352 2 513 33 55 11
224 99 257 135 3 3 32 25 65 49 58 43 80 62 150 126 18 17 59 53 91 80 92 79
191 173 277 263 44 45 83 82 87 82 4 0 22 14 40 30 18 17 36 30 41 30 6 0 19
9 31 20 12 10 25 17 30 14 4 -3 8 -1 8 5 0 8 19 18 50 26 3 1 16 6 30 12 14 6
28 11 33 12 12 1 292 145 297 153 10 12 253 127 261 122 4 -2 9 0 11 6 1 5 12
11 23 13 11 2 32 9 47 15 15 6 54 18 85 26 63 17 186 63 261 98 26 12 49 23
52 23 3 1 31 14 63 29 32 14 66 28 75 30 9 1 24 6 32 9 8 3 53 18 100 33 47
15 94 34 105 41 30 20 33 17 33 -44z"/>
</g>
</svg>
