<svg width="743" height="485" viewBox="0 0 743 485" fill="none" xmlns="http://www.w3.org/2000/svg">
<g clip-path="url(#clip0)">
<path d="M384.282 87.2238C337.358 95.1479 290.5 91.751 245.423 86.8099C200.347 81.8688 155.382 75.4165 108.438 77.3614C78.2403 78.6098 44.6104 84.589 23.5252 101.968C3.22891 118.684 0.0664577 141.24 0.0270092 161.603C-0.0255888 176.919 1.30251 192.767 12.164 204.968C19.7118 213.431 31.3294 219.496 40.0804 227.308C70.5281 254.445 61.2709 297.173 41.2902 333.502C31.9146 350.546 20.4482 367.308 14.0641 384.752C7.68002 402.197 6.83188 420.891 18.2588 435.116C29.5805 449.223 51.481 457.173 74.3152 461.293C120.693 469.664 172.364 464.467 222.359 457.423C333.005 441.778 442.508 417.388 551.774 393.058C592.202 384.049 632.808 375.002 671.757 362.018C693.388 354.791 715.413 345.795 729.384 331.794C747.136 314.053 747.583 289.788 730.476 275.287C701.77 250.976 636.799 256.37 614.596 228.576C602.38 213.274 607.699 192.491 617.423 174.133C638.271 134.762 678.568 95.8641 673.348 56.6115C669.745 29.6722 642.256 7.37827 605.411 1.56988C566.791 -4.51446 517.191 7.02346 494.955 34.1336C472.094 62.0651 425.716 80.2065 384.282 87.2238Z" fill="#D3CAD8"/>
<path d="M423.04 236.041H236.691V279.164H423.04V236.041Z" fill="#565661"/>
<path opacity="0.1" d="M423.04 236.041H236.691V279.164H423.04V236.041Z" fill="black"/>
<path d="M258.986 280.583L260.295 395.706L242.372 440.925L240.985 280.583H258.986Z" fill="#BCBEC9"/>
<path d="M238.657 244.32L420.087 245.411V277.528H238.657V244.32Z" fill="#565661"/>
<path d="M404.564 280.583L420.087 282.771V439.177L404.564 391.337V280.583Z" fill="#BCBEC9"/>
<path d="M513.423 237.769H425.985V423.453H513.423V237.769Z" fill="#EFEFF0"/>
<path d="M506.427 242.927H432.981V385.66H506.427V242.927Z" fill="#565661"/>
<path opacity="0.1" d="M506.427 242.927H432.981V385.66H506.427V242.927Z" fill="black"/>
<path d="M506.427 245.851H432.981V277.528H506.427V245.851Z" fill="#565661"/>
<path d="M506.427 280.583H432.981V347.866H506.427V280.583Z" fill="#565661"/>
<path d="M506.427 352.018H432.981V419.301H506.427V352.018Z" fill="#565661"/>
<path opacity="0.1" d="M506.427 352.018H432.981V419.301H506.427V352.018Z" fill="black"/>
<path d="M436.044 435.543C438.659 435.543 440.778 432.837 440.778 429.498C440.778 426.16 438.659 423.453 436.044 423.453C433.43 423.453 431.311 426.16 431.311 429.498C431.311 432.837 433.43 435.543 436.044 435.543Z" fill="#565661"/>
<path d="M501.693 435.832C504.308 435.832 506.427 433.126 506.427 429.787C506.427 426.449 504.308 423.743 501.693 423.743C499.079 423.743 496.959 426.449 496.959 429.787C496.959 433.126 499.079 435.832 501.693 435.832Z" fill="#565661"/>
<path d="M236.034 440.925H242.372L240.629 239.379H231.004L236.034 440.925Z" fill="#EFEFF0"/>
<path d="M420.088 237.769V439.177H425.985V239.379L420.088 237.769Z" fill="#EFEFF0"/>
<path d="M240.939 275.557V282.771H420.087V277.528L240.939 275.557Z" fill="#EFEFF0"/>
<path d="M253.082 224.227H480.2L513.206 235.148V241.482L229.913 239.3V232.854L253.082 224.227Z" fill="white"/>
<path d="M229.913 232.854L513.206 235.147V241.482L229.913 239.3V232.854Z" fill="#BCBEC9"/>
<path d="M255.574 307.969L254.259 307.772C254.259 307.713 254.259 307.66 254.259 307.608C254.22 307.299 254.174 306.997 254.128 306.688C254.667 307.115 255.179 307.542 255.653 307.969H255.574Z" fill="url(#paint0_linear)"/>
<path d="M227 409.425C227.855 409.228 228.723 409.064 229.59 408.946C235.551 408.097 241.63 408.992 247.092 411.521C246.54 415.582 245.995 419.781 247.165 423.703C247.98 426.463 249.617 428.96 249.966 431.838C250.844 431.988 251.662 432.381 252.33 432.97C252.998 433.56 253.488 434.323 253.746 435.175C253.998 435.929 254.125 436.72 254.121 437.515C254.114 438.498 253.99 439.477 253.753 440.432C253.673 441.194 253.298 441.896 252.709 442.387C252.12 442.877 251.362 443.119 250.597 443.06C245.508 443.638 240.518 441.634 235.784 439.67L226.579 435.846C225.501 435.399 224.416 434.945 223.384 434.394C221.426 433.336 219.688 431.916 218.262 430.208C217.961 429.903 217.749 429.521 217.651 429.104C217.48 427.948 218.834 427.258 219.695 426.476C219.948 426.238 220.169 425.968 220.353 425.674C221.372 424.137 221.471 422.015 222.082 420.201C223.529 415.897 227.999 413.125 229.577 408.926C229.663 408.696 229.742 408.466 229.807 408.229" fill="#A26565"/>
<path opacity="0.1" d="M254.121 437.514C254.114 438.498 253.99 439.477 253.753 440.432C253.673 441.194 253.298 441.896 252.709 442.386C252.12 442.877 251.362 443.119 250.597 443.06C245.508 443.638 240.518 441.634 235.784 439.67L226.579 435.846C225.501 435.399 224.416 434.945 223.384 434.393C221.426 433.336 219.688 431.916 218.262 430.208C217.961 429.903 217.749 429.521 217.651 429.104C217.48 427.948 218.834 427.258 219.695 426.476C219.948 426.238 220.169 425.968 220.353 425.674C222.891 426.22 226.04 427.816 227.98 428.434C229.922 428.963 231.788 429.742 233.529 430.753C235.948 432.304 237.691 434.696 239.742 436.667C241.793 438.638 244.443 440.432 247.303 440.189C248.815 439.961 250.272 439.458 251.603 438.704L254.121 437.514Z" fill="black"/>
<path d="M243.345 344.14C243.516 344.736 243.5 345.37 243.301 345.958C243.101 346.545 242.726 347.057 242.227 347.425C241.366 347.958 240.255 347.885 239.4 348.464C238.341 349.206 238.19 350.678 238.006 351.952C237.349 356.335 235.172 360.31 233.312 364.338C231.451 368.366 229.88 372.761 230.564 377.137C231.03 380.107 232.49 383.274 231.122 385.949C230.787 386.606 230.287 387.19 229.906 387.828C228.032 390.955 229.097 394.917 229.025 398.558C229.052 398.962 228.963 399.365 228.769 399.721C228.481 400.056 228.128 400.329 227.73 400.522C227.062 401.013 226.514 401.647 226.126 402.379C225.738 403.11 225.52 403.92 225.488 404.747C225.432 406.402 225.632 408.055 226.08 409.649C226.152 410.292 226.436 410.893 226.888 411.357C227.412 411.703 228.03 411.877 228.657 411.856C232.787 412.191 236.839 413.175 240.662 414.774C243.154 415.812 245.574 417.113 248.223 417.612C248.48 417.692 248.749 417.718 249.016 417.69C249.283 417.662 249.541 417.579 249.775 417.448C250.108 417.147 250.338 416.75 250.432 416.311C251.452 412.96 252.484 409.504 252.135 406.022C251.984 404.524 251.583 403.058 251.478 401.56C251.018 395.647 255.022 390.311 256.291 384.477C256.863 381.849 256.863 379.128 257.27 376.474C258.375 369.2 262.385 362.676 263.93 355.481C264.145 354.14 264.48 352.82 264.93 351.539C266.08 348.753 268.743 346.492 268.802 343.476C268.839 342.813 268.664 342.155 268.303 341.597C267.683 340.917 266.859 340.456 265.955 340.283C262.383 339.301 258.748 338.568 255.074 338.089C253.391 337.758 251.672 337.639 249.959 337.734C247.734 337.995 245.596 338.749 243.7 339.941C241.162 341.505 242.793 341.88 243.345 344.14Z" fill="#454B69"/>
<path opacity="0.05" d="M243.345 344.14C243.516 344.736 243.5 345.37 243.301 345.958C243.101 346.545 242.726 347.057 242.227 347.425C241.366 347.958 240.255 347.885 239.4 348.464C238.341 349.206 238.19 350.678 238.006 351.952C237.349 356.335 235.172 360.31 233.312 364.338C231.451 368.366 229.88 372.761 230.564 377.137C231.03 380.107 232.49 383.274 231.122 385.949C230.787 386.606 230.287 387.19 229.906 387.828C228.032 390.955 229.097 394.917 229.025 398.558C229.052 398.962 228.963 399.365 228.769 399.721C228.481 400.056 228.128 400.329 227.73 400.522C227.062 401.013 226.514 401.647 226.126 402.379C225.738 403.11 225.52 403.92 225.488 404.747C225.432 406.402 225.632 408.055 226.08 409.649C226.152 410.292 226.436 410.893 226.888 411.357C227.412 411.703 228.03 411.877 228.657 411.856C232.787 412.191 236.839 413.175 240.662 414.774C243.154 415.812 245.574 417.113 248.223 417.612C248.48 417.692 248.749 417.718 249.016 417.69C249.283 417.662 249.541 417.579 249.775 417.448C250.108 417.147 250.338 416.75 250.432 416.311C251.452 412.96 252.484 409.504 252.135 406.022C251.984 404.524 251.583 403.058 251.478 401.56C251.018 395.647 255.022 390.311 256.291 384.477C256.863 381.849 256.863 379.128 257.27 376.474C258.375 369.2 262.385 362.676 263.93 355.481C264.145 354.14 264.48 352.82 264.93 351.539C266.08 348.753 268.743 346.492 268.802 343.476C268.839 342.813 268.664 342.155 268.303 341.597C267.683 340.917 266.859 340.456 265.955 340.283C262.383 339.301 258.748 338.568 255.074 338.089C253.391 337.758 251.672 337.639 249.959 337.734C247.734 337.995 245.596 338.749 243.7 339.941C241.162 341.505 242.793 341.88 243.345 344.14Z" fill="black"/>
<path d="M230.478 443.165H224.87L221.201 367.84L220.945 363.556L225.711 361.881L226.034 366.434L230.478 443.165Z" fill="#565661"/>
<path opacity="0.1" d="M226.034 366.434L221.201 367.84L220.945 363.556L225.711 361.881L226.034 366.434Z" fill="black"/>
<path d="M300.848 459.099L291.597 460.216L248.979 363.556L237.487 362.715L217.302 368.602L213.377 483.686H204.126L207.769 364.397L185.619 364.962L146.091 463.297H137.682L179.254 348.372L180.858 343.943L242.812 341.821L258.256 350.474L258.454 350.973L300.848 459.099Z" fill="#565661"/>
<path opacity="0.1" d="M258.454 350.974C245.14 354.982 231.32 359.358 231.32 359.358C231.32 359.358 218.716 363.753 213.377 359.358C212.704 358.833 211.952 358.418 211.148 358.129C211.841 358.623 212.589 359.036 213.377 359.358L179.254 348.365L180.852 343.943L242.812 341.821L258.256 350.474L258.454 350.974Z" fill="black"/>
<path d="M195.435 331.899L220.662 326.294C220.662 326.294 280.939 337.504 285.423 341.985C285.423 341.985 237.204 351.788 231.878 355.126C226.553 358.464 194.869 362.157 195.435 331.899Z" fill="white"/>
<path d="M184.586 268.894C182.614 275.143 177.229 280.774 170.674 281.043C170.197 281.099 169.714 281.012 169.287 280.793C168.465 280.281 168.445 279.078 168.781 278.165C169.116 277.252 169.701 276.43 169.793 275.471C169.813 275.275 169.799 275.078 169.754 274.886C169.583 274.104 168.945 273.408 168.195 273.572C168.706 273.164 169.046 272.581 169.149 271.936C169.252 271.291 169.112 270.63 168.754 270.083C168.457 269.748 168.188 269.387 167.952 269.006C167.406 267.889 168.255 266.634 168.61 265.438C169.339 262.81 167.485 260.181 167.334 257.441C167.203 254.991 168.445 252.684 168.754 250.253C169.247 246.311 167.288 242.533 167.058 238.597C166.9 235.851 167.577 233.13 168.333 230.482C168.991 228.117 169.734 225.725 169.78 223.255C169.78 221.461 169.471 219.687 169.385 217.9C169.249 216.266 169.546 214.625 170.247 213.143C170.702 212.271 171.477 211.609 172.41 211.296C174.566 210.574 175.98 211.697 176.295 213.741C176.821 217.216 176.519 220.765 177.209 224.254C177.848 227.516 178.815 230.706 180.096 233.774C181.259 236.547 182.673 239.228 183.567 242.099C184.24 244.466 184.722 246.883 185.007 249.327C185.888 255.891 186.578 262.645 184.586 268.894Z" fill="#7D65AF"/>
<path d="M334.333 427.928C333.501 429.1 332.431 430.082 331.193 430.812C329.954 431.541 328.575 432 327.147 432.159C324.293 432.514 321.328 431.798 318.56 432.58C318.131 432.65 317.727 432.826 317.383 433.091C317.039 433.356 316.765 433.702 316.588 434.098C316.519 434.632 316.477 435.169 316.463 435.708C316.141 437.462 313.833 437.856 312.038 437.843L304.635 437.797C303.096 437.797 301.393 437.712 300.289 436.647C299.764 436.066 299.467 435.314 299.455 434.531C299.443 433.748 299.716 432.987 300.223 432.389C300.453 432.118 300.734 431.894 301.051 431.732C300.589 431.579 300.178 431.301 299.865 430.929C299.552 430.557 299.348 430.105 299.276 429.623C299.142 428.657 299.188 427.674 299.414 426.726C299.414 423.979 300.072 419.38 302.005 417.231C304.378 414.557 308.494 411.101 312.077 410.385C313.287 410.153 314.535 410.207 315.72 410.544C316.905 410.88 317.995 411.49 318.902 412.323C320.598 413.9 321.834 416.37 324.162 416.646C325.431 416.804 326.654 416.206 327.909 415.989C329.337 415.806 330.786 416.068 332.058 416.739C333.33 417.411 334.364 418.459 335.017 419.741C335.335 420.391 335.557 421.084 335.674 421.798C336.022 423.937 335.542 426.129 334.333 427.928Z" fill="#A26565"/>
<path opacity="0.1" d="M334.333 427.928C333.501 429.1 332.431 430.082 331.193 430.812C329.954 431.541 328.575 432 327.147 432.159C324.293 432.514 321.328 431.798 318.56 432.58C318.131 432.65 317.727 432.826 317.383 433.091C317.039 433.356 316.765 433.702 316.588 434.098C316.519 434.632 316.477 435.169 316.463 435.708C316.141 437.462 313.833 437.856 312.038 437.843L304.635 437.797C303.096 437.797 301.393 437.712 300.289 436.647C299.764 436.066 299.467 435.314 299.455 434.531C299.443 433.748 299.716 432.987 300.223 432.389C304.497 432.212 308.698 432.389 312.958 431.509C314.688 431.161 316.39 430.701 318.139 430.458C321.926 429.919 325.957 430.379 329.435 428.776C332.334 427.461 334.412 424.787 335.641 421.804C335.997 423.937 335.529 426.126 334.333 427.928V427.928Z" fill="black"/>
<path d="M314.799 417.54C312.169 419.577 309.086 421.167 305.772 421.338C302.459 421.509 298.941 420.024 297.317 417.146C294.944 412.921 297.047 407.047 294.141 403.17C293.234 401.955 291.926 401.094 290.966 399.918C290.006 398.742 289.454 396.974 290.308 395.726C289.276 396.12 288.185 395.121 287.882 394.057C287.58 392.992 287.77 391.849 287.586 390.772C287.106 387.913 284.299 386.08 282.951 383.544C281.603 381.008 281.787 377.716 281.636 374.713C281.3 367.397 278.575 360.393 273.878 354.771C272.984 353.707 271.84 352.623 270.446 352.675C270.689 350.271 269.085 347.971 267.007 346.762C264.93 345.553 262.458 345.145 260.051 344.909C235.771 342.517 210.471 351.539 187.289 343.95C180.839 341.841 174.619 338.312 170.674 332.78C169.137 330.674 168.038 328.283 167.441 325.746C166.843 323.209 166.76 320.578 167.196 318.009V317.917C168.11 313.252 170.575 312.102 174.658 309.973C179.372 307.483 184.298 305.418 189.379 303.803C199.241 300.722 209.86 299.611 220.037 301.872C224.791 302.936 229.374 304.697 234.134 305.729C236.007 306.136 237.894 306.425 239.795 306.668C242.747 307.036 245.712 307.279 248.684 307.621C258.186 308.714 267.544 310.818 276.6 313.896C279.973 315.039 283.346 316.347 286.245 318.416C288.539 320.081 290.478 322.185 291.95 324.606C293.422 327.026 294.397 329.716 294.819 332.517C295.095 334.449 295.101 336.459 295.522 338.332C295.921 339.906 296.449 341.444 297.1 342.931C302.718 356.812 307.308 371.087 310.835 385.64C311.035 386.721 311.405 387.763 311.933 388.728C312.774 390.088 314.221 391.002 315.069 392.362C317.041 395.568 315.141 400.043 316.89 403.38C317.495 404.537 318.501 405.45 319.106 406.607C321.078 410.398 318.166 414.932 314.799 417.54Z" fill="#454B69"/>
<path opacity="0.1" d="M281.202 342.044C282.137 341.305 282.943 340.417 283.589 339.416C284.237 338.41 284.494 337.202 284.312 336.019C284.569 337.515 284.471 339.05 284.027 340.501C283.582 341.953 282.804 343.28 281.755 344.377C280.104 346.065 277.008 347.721 274.595 347.143C274.937 345.211 279.67 343.345 281.202 342.044Z" fill="black"/>
<path opacity="0.1" d="M240.123 309.296C239.925 310.001 239.554 310.645 239.044 311.17C238.535 311.695 237.902 312.086 237.204 312.306C235.802 312.734 234.334 312.905 232.871 312.812H231.556C214.304 312.431 196.868 308.607 180.017 312.253C177.986 312.672 175.993 313.258 174.06 314.008C171.597 314.978 169.291 316.306 167.216 317.95V317.858C168.13 313.193 170.595 312.043 174.678 309.914C179.387 307.445 184.307 305.4 189.379 303.803C199.241 300.722 209.86 299.611 220.037 301.872C224.791 302.936 229.374 304.697 234.134 305.729C236.007 306.136 237.894 306.425 239.794 306.668C240.163 307.492 240.277 308.407 240.123 309.296V309.296Z" fill="black"/>
<path d="M240.123 308.357C239.926 309.063 239.556 309.708 239.046 310.235C238.537 310.761 237.903 311.152 237.204 311.373C235.802 311.802 234.334 311.971 232.871 311.872H231.556C214.304 311.491 196.868 307.667 180.017 311.314C177.987 311.733 175.995 312.317 174.06 313.061C171.481 314.089 169.075 315.508 166.926 317.266C166.422 315.882 165.921 314.496 165.421 313.107C164.816 311.452 166.736 311.084 167.104 309.599C167.347 308.593 166.933 307.45 166.723 306.379C166.669 306.117 166.634 305.851 166.617 305.584C166.499 303.212 167.347 301.845 169.293 300.564C175.066 296.753 182.108 294.138 188.695 292.173C192.198 291.067 195.816 290.366 199.478 290.084C204.659 289.782 209.833 290.741 214.876 291.957C221.076 293.488 227.21 295.511 232.707 298.751C235.403 300.321 238.032 302.292 239.486 305.091C240.065 306.075 240.29 307.227 240.123 308.357Z" fill="#A26565"/>
<path opacity="0.1" d="M184.586 268.894C182.614 275.143 177.229 280.773 170.674 281.043C170.197 281.099 169.714 281.012 169.287 280.793C168.465 280.281 168.445 279.078 168.781 278.165C169.116 277.252 169.701 276.43 169.793 275.471C169.813 275.275 169.799 275.078 169.754 274.886C173.232 269.985 176.605 265.03 177.939 259.229C178.209 258.23 178.292 257.189 178.182 256.16C178.005 254.977 177.407 253.906 177.078 252.763C176.499 250.739 176.769 248.597 176.933 246.501C177.618 237.272 176.076 228.013 172.436 219.503C171.549 217.453 170.536 215.377 170.227 213.189C170.682 212.317 171.457 211.655 172.39 211.342C174.547 210.62 175.96 211.743 176.276 213.787C176.802 217.262 176.499 220.81 177.19 224.299C177.828 227.562 178.795 230.752 180.076 233.82C181.24 236.593 182.653 239.274 183.547 242.145C184.221 244.512 184.702 246.929 184.987 249.373C185.888 255.891 186.578 262.645 184.586 268.894Z" fill="black"/>
<path opacity="0.1" d="M240.123 308.357C239.926 309.063 239.556 309.708 239.046 310.235C238.537 310.761 237.903 311.152 237.204 311.373C235.802 311.802 234.334 311.971 232.871 311.872H231.556C225.94 308.144 219.189 306.516 212.49 307.273C210.346 307.529 208.203 308.028 206.059 307.831C201.727 307.437 198.216 304.322 194.356 302.332C189.965 300.164 185.025 299.358 180.172 300.016C175.318 300.674 170.772 302.766 167.117 306.024L166.742 306.353C166.688 306.091 166.653 305.825 166.637 305.558C166.519 303.186 167.367 301.819 169.313 300.538C175.086 296.727 182.127 294.112 188.715 292.147C192.218 291.041 195.835 290.34 199.498 290.058C204.679 289.756 209.853 290.715 214.896 291.93C221.096 293.461 227.23 295.485 232.727 298.724C235.403 300.321 238.032 302.292 239.485 305.091C240.065 306.075 240.29 307.227 240.123 308.357Z" fill="black"/>
<path d="M254.87 236.383L254.778 236.619C253.306 240.437 250.597 243.663 248.861 247.382C246.672 252.093 246.133 257.376 245.646 262.553C245.225 266.989 244.811 271.45 245.146 275.898C245.988 286.858 251.346 297.253 252.78 308.002C253.133 310.485 253.223 312.998 253.049 315.499C252.931 317.083 252.642 318.784 251.59 319.954C250.538 321.123 248.493 321.583 247.362 320.46C247.868 319.494 248.381 318.535 248.894 317.569C245.889 315.236 241.366 316.912 237.855 315.453C236.31 314.796 235.074 313.613 233.779 312.555C230.823 310.154 227.416 308.366 223.759 307.299C220.102 306.231 216.268 305.905 212.483 306.34C210.34 306.603 208.196 307.102 206.053 306.905C201.72 306.504 198.209 303.396 194.35 301.405C189.958 299.239 185.02 298.433 180.167 299.089C175.314 299.746 170.767 301.836 167.111 305.091C166.19 305.945 164.954 306.944 163.823 306.405C163.386 306.138 163.033 305.753 162.804 305.295C158.498 297.943 161.667 288.461 166.269 281.299C170.871 274.137 176.966 267.534 178.86 259.235C179.133 258.237 179.216 257.196 179.103 256.167C178.925 254.984 178.327 253.913 177.998 252.77C177.42 250.746 177.689 248.604 177.854 246.508C178.544 237.278 177.006 228.016 173.37 219.503C172.318 217.052 171.069 214.569 171.069 211.907C171.069 207.715 174.073 204.24 176.559 200.869C179.419 196.992 181.818 192.702 185.441 189.515C188.873 186.486 193.844 184.633 198.091 186.171C205.308 184.42 212.736 183.696 220.156 184.022C222.72 184.14 225.369 184.41 227.618 185.651C230.024 186.966 231.754 189.305 234.12 190.704C235.85 191.736 237.842 192.222 239.722 192.945C244.914 194.971 249.201 198.802 251.793 203.734C254.423 208.826 255.081 214.68 255.659 220.384C256.212 225.752 256.738 231.33 254.87 236.383Z" fill="#7D65AF"/>
<path opacity="0.1" d="M245.146 275.898C245.988 286.858 251.346 297.252 252.78 308.002C249.913 305.577 245.922 303.14 245.39 300.321C244.798 297.272 242.904 293.277 242.589 290.196C242.273 287.114 244.436 283.349 242.168 281.233C241.063 280.202 244.002 280.491 242.924 279.433C240.498 277.074 239.9 273.441 239.748 270.07C239.492 264.104 240.248 258.072 239.15 252.205C238.493 248.584 237.119 245.135 236.021 241.619C234.745 237.526 233.825 233.334 232.904 229.135C231.998 225.403 231.339 221.614 230.932 217.795C230.649 214.509 230.781 211.027 232.247 208.031C233.713 205.035 236.678 202.603 240.005 202.649C251.129 202.794 249.21 217.867 251.655 224.832C252.635 227.604 253.957 230.285 254.489 233.176C254.683 234.31 254.789 235.456 254.805 236.606C253.332 240.424 250.623 243.65 248.887 247.369C246.698 252.08 246.159 257.363 245.672 262.54C245.225 266.988 244.811 271.45 245.146 275.898Z" fill="black"/>
<path d="M252.379 224.661C253.358 227.434 254.68 230.114 255.212 233.006C256.1 237.848 254.726 242.993 256.218 247.684C256.607 248.686 256.932 249.71 257.191 250.753C257.448 252.244 257.152 253.769 257.152 255.286C257.152 257.731 257.921 260.096 258.605 262.442C260.917 270.413 262.448 278.59 263.174 286.858C263.283 289.08 263.633 291.283 264.22 293.429C264.496 294.156 264.733 294.897 264.93 295.649C265.106 296.653 265.148 297.676 265.055 298.692C264.877 301.911 264.516 305.144 264.877 308.35C265.239 311.557 266.409 314.809 268.822 316.958C266.666 317.424 264.384 317.891 262.28 317.201C259.322 316.235 257.546 313.258 256.041 310.551C254.134 307.095 246.889 303.981 246.139 300.098C245.554 297.055 243.66 293.061 243.345 289.972C243.029 286.884 245.186 283.132 242.918 281.017C241.82 279.985 244.758 280.268 243.674 279.216C241.254 276.858 240.656 273.224 240.505 269.847C240.248 263.887 240.998 257.855 239.906 251.988C239.249 248.368 237.875 244.918 236.777 241.396C235.501 237.309 234.581 233.117 233.66 228.912C232.752 225.18 232.093 221.391 231.688 217.571C231.405 214.286 231.53 210.797 233.003 207.801C234.476 204.805 237.441 202.38 240.761 202.42C251.839 202.617 249.933 217.696 252.379 224.661Z" fill="#7D65AF"/>
<path opacity="0.1" d="M220.675 227.23C221.714 228.446 223.049 229.779 224.62 229.543C224.501 229.732 224.312 229.867 224.094 229.918C223.877 229.97 223.648 229.934 223.456 229.819C223.079 229.569 222.777 229.222 222.582 228.814L220.333 225.022C220.037 224.53 217.999 221.658 217.5 223.314C217.302 224.017 220.169 226.639 220.675 227.23Z" fill="black"/>
<path opacity="0.1" d="M219.465 236.685C219.401 235.446 218.878 234.275 217.999 233.4C217.209 232.683 216.287 232.128 215.284 231.764C212.818 230.752 209.899 229.937 207.223 230.068C208.196 231.488 211.319 232.335 212.884 233.137C215.102 234.28 217.296 235.463 219.465 236.685Z" fill="black"/>
<path opacity="0.1" d="M226.467 263.598C226.014 266.962 223.259 269.512 220.471 271.483C217.684 273.454 214.554 275.149 212.733 278.001C211.47 279.972 210.905 282.258 209.833 284.315C208.65 286.582 206.881 288.487 205.468 290.616C204.054 292.745 202.95 295.288 203.384 297.811C203.39 297.927 203.42 298.041 203.472 298.145C203.524 298.249 203.597 298.341 203.686 298.415C203.821 298.473 203.969 298.494 204.115 298.478C204.262 298.462 204.401 298.409 204.521 298.324C207.388 296.825 208.518 293.402 209.722 290.439C210.985 287.448 212.407 284.526 213.982 281.687C214.692 280.373 215.474 278.94 216.796 278.211C217.701 277.834 218.627 277.512 219.571 277.245C220.909 276.632 222.082 275.711 222.996 274.558C226.585 270.279 228.459 264.822 228.256 259.242C228.216 258.066 228.151 252.402 226.382 254.15C224.613 255.897 226.77 261.311 226.467 263.598Z" fill="black"/>
<path d="M230.8 134.572C236.455 137.036 241.32 142.457 241.142 148.6C240.991 155.052 235.587 161.13 237.447 167.313C238.526 170.901 241.773 173.305 244.344 176.032C254.134 186.387 254.114 204.463 244.292 214.798C240.531 218.741 235.698 221.546 231.721 225.311C217.697 238.518 217.098 261.364 224.607 279.098C218.854 280.342 212.99 281.002 207.105 281.069C204.35 281.069 200.977 280.603 199.978 278.034C199.057 275.662 200.635 272.455 198.821 270.701C197.966 269.88 196.684 269.768 195.533 269.577C188.13 268.381 182.055 262.475 179.28 255.516C176.506 248.558 176.651 240.726 178.242 233.406C179.372 228.117 181.141 222.296 178.518 217.565C175.23 211.612 165.776 209.102 165.921 202.295C166.039 196.716 172.62 194.003 176.355 189.857C183.245 182.222 179.964 170.375 179.951 160.085C179.951 151.031 183.12 141.688 189.866 135.656C199.899 126.608 219.222 129.545 230.8 134.572Z" fill="#A26565"/>
<g opacity="0.1">
<path opacity="0.1" d="M179.596 210.817C176.71 205.613 169.129 203.037 167.367 197.919C166.485 199.113 165.99 200.548 165.947 202.032C165.802 208.839 175.244 211.349 178.544 217.308C179.628 219.418 180.084 221.794 179.859 224.155C180.898 219.582 181.812 214.812 179.596 210.817Z" fill="black"/>
<path opacity="0.1" d="M238.203 158.89C239.387 155.44 241.103 151.958 241.188 148.377C241.2 147.989 241.189 147.6 241.155 147.214C239.834 151.169 237.809 155.006 238.203 158.89Z" fill="black"/>
<path opacity="0.1" d="M180.727 177.267C182.989 170.125 181.036 161.268 181.029 153.344C181.029 152.385 181.069 151.419 181.141 150.459C180.362 153.522 179.969 156.669 179.971 159.829C179.984 165.486 180.977 171.623 180.727 177.267Z" fill="black"/>
<path opacity="0.1" d="M245.39 208.077C241.629 212.019 236.796 214.825 232.819 218.59C225.718 225.272 222.069 234.425 221.155 244.129C222.851 236.902 226.277 230.246 231.767 225.075C235.712 221.33 240.577 218.537 244.338 214.562C248.811 209.69 251.409 203.389 251.669 196.782C250.533 201.004 248.377 204.883 245.39 208.077V208.077Z" fill="black"/>
<path opacity="0.1" d="M208.203 274.328C205.448 274.328 202.075 273.855 201.076 271.286C200.155 268.92 201.733 265.714 199.919 263.953C199.064 263.132 197.775 263.02 196.631 262.829C189.235 261.64 183.16 255.727 180.385 248.775C178.34 243.637 177.9 238.032 178.413 232.5C178.36 232.716 178.314 232.933 178.268 233.157C176.703 240.476 176.539 248.315 179.307 255.273C182.075 262.231 188.156 268.138 195.553 269.328C196.723 269.518 198.012 269.637 198.84 270.451C200.675 272.212 199.077 275.419 199.997 277.784C200.997 280.353 204.37 280.859 207.125 280.826C213.01 280.758 218.874 280.098 224.627 278.855C223.815 276.938 223.106 274.98 222.503 272.988C217.781 273.826 212.998 274.275 208.203 274.328V274.328Z" fill="black"/>
</g>
<path opacity="0.1" d="M229.735 245.674C231.359 246.896 233.121 242.237 232.115 241.074C231.846 241.376 229.485 245.503 229.735 245.674Z" fill="black"/>
<path opacity="0.1" d="M236.658 330C238.572 329.343 240.603 328.686 241.852 327.109C242.885 325.841 243.733 320.808 241.55 323.219C239.696 325.289 238.821 328.016 236.658 330Z" fill="black"/>
<path opacity="0.1" d="M256.139 324.724C255.909 326.275 255.482 327.885 254.384 329.002C254.18 329.212 253.726 329.343 253.667 329.061C254.894 328.408 256.033 327.605 257.06 326.669C259.282 324.468 259.584 319.047 256.199 317.608C256.166 319.987 256.501 322.306 256.139 324.724Z" fill="black"/>
<path d="M279.526 314.954C279.526 314.954 260.867 307.628 254.121 308.383C247.375 309.139 261.761 319.763 261.761 319.763L270.361 325.559C270.361 325.559 275.62 323.587 275.969 323.436C276.317 323.285 279.526 314.954 279.526 314.954Z" fill="#454B69"/>
<path d="M151.141 236.357C151.141 236.357 165.158 228.235 183.659 238.328C202.161 248.42 205.244 307.811 205.244 307.811C205.244 307.811 197.677 368.32 226.855 354.857C226.855 354.857 280.111 338.332 285.443 341.972C285.443 341.972 290.492 341.972 280.4 344.212C270.308 346.453 231.32 358.799 231.32 358.799C231.32 358.799 218.716 363.201 213.377 358.799C208.038 354.397 192.91 359.364 190.944 329.1C189.643 310.029 187.303 291.042 183.935 272.225L178.735 256.817L151.141 236.357Z" fill="#565661"/>
<path d="M149.457 329.935C149.457 329.935 155.624 268.579 145.512 246.442C136.715 227.151 170.733 236.173 179.609 238.801C180.983 239.211 182.181 240.066 183.015 241.232C188.275 248.624 207.144 278.25 201.582 317.891C201.582 317.891 199.34 353.194 213.357 358.793L170.168 344.889C166.663 343.759 163.107 342.819 159.517 342.005C154.941 340.967 147.485 338.016 149.457 329.935Z" fill="white"/>
<path d="M456.637 444.479H462.245L465.92 369.154L466.17 364.87L461.403 363.195L461.088 367.748L456.637 444.479Z" fill="#565661"/>
<path opacity="0.1" d="M461.088 367.748L465.92 369.154L466.17 364.87L461.403 363.195L461.088 367.748Z" fill="black"/>
<path d="M409.811 415.391C409.673 416.423 409.408 417.434 409.022 418.401C408.623 419.663 407.768 420.732 406.622 421.397C405.853 421.714 405.029 421.877 404.196 421.876C401.1 422.06 397.825 422.014 395.163 420.438C394.028 419.707 392.988 418.84 392.066 417.855C386.082 411.914 380.643 405.449 375.813 398.538C375.004 397.375 374.169 396.002 374.531 394.596C380.787 392.861 386.728 390.144 392.132 386.547C392.877 385.975 393.713 385.531 394.604 385.232C396.129 384.907 397.7 384.849 399.245 385.062C400.738 385.305 400.804 385.351 401.376 387.033C402.322 389.878 402.165 392.946 403.23 395.791C403.906 397.364 404.729 398.868 405.689 400.286C408.437 404.878 410.548 410.299 409.811 415.391Z" fill="#A26565"/>
<path opacity="0.1" d="M409.811 415.391C409.673 416.423 409.408 417.434 409.022 418.401C408.623 419.663 407.768 420.732 406.622 421.397C405.853 421.714 405.029 421.877 404.196 421.877C401.1 422.06 397.825 422.015 395.163 420.438C394.028 419.707 392.988 418.84 392.066 417.855C386.082 411.914 380.643 405.449 375.813 398.538C375.004 397.375 374.169 396.002 374.531 394.596C376.572 394.03 378.582 393.359 380.553 392.585L380.652 392.657C382.67 394.096 384.137 396.159 385.563 398.183L390.166 404.655C390.986 405.926 391.955 407.095 393.052 408.138C394.412 409.228 395.914 410.13 397.516 410.818C399.679 411.863 401.842 412.908 404.091 413.749C405.544 414.334 408.003 414.563 409.811 415.391Z" fill="black"/>
<path d="M414.058 345.224C413.605 346.316 413.055 347.365 412.415 348.358C406.304 358.613 401.59 369.638 398.397 381.139C397.49 380.935 396.977 382.171 396.984 383.11C396.99 384.05 396.984 385.232 396.116 385.574C395.859 385.673 395.57 385.673 395.32 385.784C394.768 386.034 394.61 386.737 394.531 387.342L393.755 393.032C393.486 395.003 393.249 397.138 394.216 398.88C394.883 399.914 395.747 400.808 396.76 401.508L409.594 411.626C410.12 412.04 410.771 412.481 411.402 412.251C412.842 411.725 411.567 409.149 412.717 408.105C413.48 407.388 414.69 407.927 415.748 407.842C417.129 407.737 418.174 406.469 418.523 405.135C418.767 403.776 418.792 402.388 418.595 401.022C418.508 400.398 418.581 399.763 418.805 399.175C419.198 398.552 419.737 398.036 420.377 397.671C422.604 396.045 424.398 393.899 425.602 391.421C426.807 388.942 427.385 386.206 427.287 383.452C427.182 382.614 427.213 381.764 427.379 380.935C427.646 380.177 428.049 379.473 428.569 378.859C433.23 372.558 437.116 365.718 440.975 358.891C443.198 354.949 445.459 350.947 446.235 346.506C446.302 346.34 446.33 346.162 446.317 345.984C446.303 345.806 446.248 345.634 446.156 345.481C446.064 345.328 445.938 345.198 445.787 345.102C445.637 345.007 445.466 344.947 445.288 344.929C443.363 344.328 441.399 343.858 439.411 343.522C433.368 342.3 427.537 340.415 421.659 338.601C415.781 336.788 415.827 340.48 414.058 345.224Z" fill="#454B69"/>
<path d="M386.267 460.413L395.524 461.53L438.135 364.87L449.628 364.029L469.819 369.916L473.737 485H482.988L479.346 365.711L501.496 366.276L541.024 464.611H549.433L507.86 349.686L506.263 345.257L444.302 343.135L428.858 351.788L428.661 352.288L386.267 460.413Z" fill="#565661"/>
<path opacity="0.1" d="M428.661 352.288C441.975 356.296 455.795 360.672 455.795 360.672C455.795 360.672 468.399 365.067 473.737 360.672C474.411 360.147 475.163 359.732 475.966 359.443C475.274 359.937 474.526 360.35 473.737 360.672L507.86 349.679L506.282 345.257L444.322 343.135L428.878 351.788L428.661 352.288Z" fill="black"/>
<path d="M491.68 333.213L466.453 327.609C466.453 327.609 406.175 338.818 401.691 343.299C401.691 343.299 449.91 353.102 455.236 356.44C460.562 359.778 492.245 363.471 491.68 333.213Z" fill="white"/>
<path d="M398.069 423.283C396.55 426.174 392.809 426.988 389.521 427.034C384.957 427.091 380.424 426.282 376.162 424.649C373.729 423.716 371.395 422.514 368.883 421.831C365.142 420.806 360.994 420.891 357.706 418.834C355.963 417.673 354.522 416.112 353.505 414.281C353.314 413.959 353.13 413.624 352.959 413.282C351.388 410.227 350.658 406.672 351.532 403.374C352.407 400.075 355.583 396.442 359.264 396.494C363.637 396.56 368.85 398.63 373.071 399.701C378.331 401.015 383.591 402.533 388.239 405.312C392.132 407.651 395.57 411.009 397.405 415.109C397.757 415.9 398.047 416.717 398.272 417.553C398.844 419.445 398.976 421.555 398.069 423.283Z" fill="#A26565"/>
<path opacity="0.1" d="M398.069 423.283C396.55 426.174 392.809 426.988 389.521 427.034C384.957 427.091 380.424 426.282 376.162 424.649C373.729 423.716 371.395 422.514 368.883 421.831C365.142 420.806 360.994 420.891 357.706 418.834C355.963 417.673 354.522 416.112 353.505 414.281C353.314 413.959 353.13 413.624 352.959 413.282C353.617 413.335 354.222 413.401 354.55 413.433C358.587 413.821 362.44 415.293 366.293 416.403C371.642 417.947 377.164 418.808 382.73 418.966C386.675 419.078 390.79 418.788 394.236 416.863C395.264 416.215 396.331 415.629 397.431 415.109C397.783 415.9 398.074 416.717 398.299 417.553C398.844 419.445 398.976 421.555 398.069 423.283Z" fill="black"/>
<path d="M426.32 298.35C417.773 296.95 409.068 296.609 400.403 296.267L389.804 295.847C389.05 295.759 388.287 295.852 387.575 296.116C386.962 296.51 386.38 296.949 385.833 297.43C384.768 298.153 383.407 298.232 382.125 298.304C373.03 298.805 363.985 299.977 355.063 301.813C350.461 302.752 345.681 303.981 342.223 307.154C338.567 310.512 336.963 315.631 336.838 320.585C336.713 325.539 338.015 330.408 339.389 335.165C341.138 340.891 342.105 346.828 342.262 352.813C342.2 354.474 342.264 356.136 342.453 357.787C342.759 359.363 343.224 360.904 343.84 362.387L348.679 375.298C349.106 376.428 349.527 377.552 349.994 378.655C350.461 379.759 350.908 380.627 351.309 381.665C351.901 383.084 352.367 384.556 352.834 386.021L356.056 396.133L356.477 397.447C357.64 401.087 358.83 404.793 361.026 407.921C363.222 411.048 366.622 413.571 370.441 413.762C371.674 413.716 372.908 413.749 374.136 413.86C375.183 414.116 376.2 414.484 377.167 414.958C380.036 416.149 383.115 416.75 386.221 416.725C389.081 416.725 392.257 415.93 393.808 413.525C394.663 412.211 394.886 410.595 395.123 409.044C395.537 405.93 395.938 402.677 394.88 399.721C394.222 397.953 393.118 396.435 392.355 394.694C391.29 392.322 390.942 389.7 390.251 387.197C388.757 381.809 385.717 376.976 381.507 373.294C380.011 367.377 378.913 361.367 378.219 355.304C378.123 353.961 377.856 352.636 377.424 351.361C376.655 349.39 375.096 347.793 374.445 345.783C373.834 343.917 374.018 341.762 372.907 340.152C382.158 342.695 391.316 342.123 400.922 341.972C403.998 341.982 407.072 341.806 410.127 341.446C411.551 341.185 412.993 341.032 414.44 340.986C417.412 340.986 420.199 342.3 422.928 343.457C430.64 346.742 438.766 349.324 447.143 349.679C455.788 350.041 464.336 348.01 472.784 346C476.499 345.113 480.358 344.153 483.304 341.716C486.249 339.278 487.906 334.882 486.091 331.538C484.711 329.021 481.851 327.786 479.181 326.735C471.791 323.817 464.362 320.972 457.241 317.444C446.367 312.148 438.234 300.321 426.32 298.35Z" fill="#454B69"/>
<path d="M411.08 268.625C410.048 270.859 408.312 272.685 407.03 274.788C404.885 278.249 404.177 282.41 405.058 286.385C405.52 288.35 406.427 290.182 407.709 291.742C408.992 293.301 410.615 294.546 412.454 295.38C414.096 296.034 415.823 296.45 417.582 296.615C419.897 296.898 422.362 296.957 424.407 295.84C425.937 294.922 427.193 293.611 428.043 292.042C429.812 289.085 430.817 285.754 431.738 282.436C433.441 276.312 434.894 270.031 434.683 263.677C434.611 261.489 434.177 259.025 432.363 257.763C431.426 257.223 430.387 256.883 429.312 256.765L420.64 255.214C418.963 254.912 416.037 253.683 414.584 254.892C413.131 256.101 413.02 259.676 412.77 261.351C412.375 263.828 412.132 266.345 411.08 268.625Z" fill="#A1616A"/>
<path d="M516.493 243.21L514.225 262.212C513.755 265.601 513.485 269.015 513.416 272.436C513.416 274.341 513.475 276.457 512.213 277.883C511.596 278.531 510.814 279.001 509.951 279.243C507.196 280.097 504.192 279.335 501.562 278.159C500.023 277.501 498.452 276.549 497.755 275.018C497.35 273.956 497.182 272.82 497.262 271.687C497.262 260.352 498.334 248.532 504.258 238.873C504.763 237.925 505.475 237.103 506.342 236.468C507.985 235.417 510.135 235.713 511.996 236.284C513.14 236.633 516.23 237.02 516.96 238.039C517.69 239.057 516.651 241.902 516.493 243.21Z" fill="#A1616A"/>
<path d="M456.314 174.495C469.386 174.495 479.983 163.904 479.983 150.841C479.983 137.777 469.386 127.187 456.314 127.187C443.242 127.187 432.645 137.777 432.645 150.841C432.645 163.904 443.242 174.495 456.314 174.495Z" fill="#A1616A"/>
<path d="M449.983 186.092C449.898 187.932 449.396 189.729 448.517 191.348C460.601 189.508 472.655 187.458 484.678 185.198C480.689 183.149 477.673 179.606 476.288 175.342C475.635 173.056 475.277 170.695 475.223 168.318C475.033 164.549 475.105 160.77 475.44 157.01C471.232 157.451 467.248 159.028 463.238 160.381C459.205 161.743 455.103 162.89 450.949 163.817C448.944 164.264 446.926 164.645 444.901 165C442.534 165.421 441.396 165.414 443.04 167.49C447.452 173.036 450.601 178.674 449.983 186.092Z" fill="#A1616A"/>
<path d="M457.255 182.931C454.132 183.398 450.857 183.923 448.365 185.855C447.417 186.669 446.515 187.536 445.663 188.451C440.712 193.254 433.724 195.185 427.714 198.576C426.734 199.06 425.865 199.742 425.163 200.58C424.506 201.493 424.17 202.656 423.48 203.563C422.678 204.614 421.409 205.271 420.784 206.434C420.16 207.597 420.298 208.832 420.232 210.068C420.081 212.781 419.055 215.357 418.26 217.952C414.611 230.377 416.609 244.235 411.087 255.97C411.341 256.646 411.729 257.263 412.229 257.785C412.728 258.307 413.328 258.722 413.993 259.005C415.382 259.506 416.833 259.817 418.306 259.932L430.541 261.45C432.29 261.666 434.144 261.87 435.742 261.141C434.281 265.167 433.247 269.336 432.658 273.579C432.361 276.172 431.9 278.744 431.278 281.279C429.595 287.062 425.36 291.878 420.344 295.17C419.712 295.5 419.179 295.992 418.799 296.596C418.141 297.91 419.114 299.381 419.805 300.669C421.81 304.401 421.534 308.882 421.508 313.114C421.481 317.345 421.909 321.991 424.867 325.026C426.616 326.82 429.009 327.793 431.337 328.719L450.476 336.361C453.635 337.705 456.892 338.803 460.22 339.646C465.263 340.796 470.503 340.75 475.677 340.526C479.096 340.382 482.51 340.163 485.921 339.869C487.277 339.865 488.61 339.514 489.793 338.851C490.811 338.048 491.595 336.986 492.061 335.776C494.724 329.987 495.618 323.233 499.747 318.383C502.581 315.052 506.979 312.391 507.302 308.035C507.453 305.867 506.486 303.757 506.473 301.583C506.473 298.908 507.874 296.366 507.788 293.698C507.611 289.355 503.515 286.043 502.864 281.746C501.207 270.852 506.743 259.971 510.142 249.491C510.753 247.618 511.542 245.549 513.344 244.747C515.145 243.946 517.683 244.366 518.327 242.592C519.951 238.137 520.339 232.914 520.129 228.176C520.011 225.436 519.038 222.755 519.149 220.009C519.228 218.077 519.846 216.198 520.011 214.273C520.26 211.362 519.491 208.471 518.696 205.659C518.466 204.655 518.122 203.68 517.67 202.755C517.184 201.915 516.611 201.129 515.961 200.409L512.759 196.605C511.26 194.824 509.675 192.978 507.499 192.077C506.795 190.336 504.547 189.134 502.936 188.175C501.312 187.254 499.635 186.431 497.913 185.711L479.806 177.721C479.129 177.38 478.404 177.145 477.656 177.024C476.554 176.987 475.459 177.213 474.461 177.681C468.938 179.869 463.172 182.051 457.255 182.931Z" fill="#7D65AF"/>
<path d="M438.076 154.954C437.379 152.503 435.597 150.387 435.328 147.851C435.084 145.597 436.077 143.416 436.643 141.221C437.208 139.027 437.188 136.346 435.446 134.887C435.157 134.638 434.789 134.414 434.683 134.046C434.473 133.389 435.137 132.791 435.341 132.128C435.716 130.813 434.092 129.361 434.683 128.1C435.019 127.41 435.86 127.167 436.597 126.95C439.411 126.116 442.264 124.263 442.876 121.391C445.078 122.311 447.425 120.583 449.115 118.908C450.805 117.232 452.882 115.32 455.21 115.826L454.69 116.884C458.279 115.582 462.204 115.538 465.821 116.759H464.717C467.89 116.813 470.967 117.853 473.52 119.736C473.238 119.736 473.211 120.156 473.323 120.393C474.244 122.541 476.611 123.678 478.892 124.21C480.266 124.539 481.759 124.775 482.765 125.761C483.771 126.746 483.79 128.803 482.462 129.276C485.171 130.33 487.735 131.721 490.095 133.415C490.753 133.895 491.496 134.546 491.41 135.387C491.316 135.809 491.18 136.221 491.003 136.615C490.872 137.317 490.919 138.04 491.141 138.718L491.871 141.727C492.673 145.072 493.304 149.099 490.865 151.524C491.778 153.229 492.117 155.182 491.831 157.095C491.546 159.008 490.651 160.777 489.28 162.142C489.474 162.729 489.54 163.35 489.476 163.965C489.412 164.58 489.218 165.174 488.908 165.708C488.597 166.243 488.177 166.705 487.674 167.066C487.172 167.426 486.599 167.676 485.993 167.799C486.802 169.061 486.059 170.861 484.783 171.65C483.508 172.438 481.903 172.445 480.417 172.307C478.932 172.169 477.426 171.834 475.94 172.057C473.777 172.392 471.66 173.864 469.576 173.207C468.799 172.875 468.053 172.475 467.347 172.011C465.887 171.229 464.191 171.052 462.574 170.697C459.816 170.105 457.198 168.989 454.861 167.412C453.312 166.481 452.078 165.108 451.318 163.469C449.871 159.816 452.304 155.026 449.746 152.05C448.247 150.315 445.275 150.289 443.599 151.774C442.764 152.516 442.652 154.08 441.784 154.638C440.573 154.944 439.321 155.051 438.076 154.954Z" fill="#464353"/>
<path opacity="0.1" d="M405.912 343.358C404.978 342.619 404.171 341.731 403.526 340.73C402.878 339.724 402.621 338.516 402.802 337.333C402.546 338.829 402.644 340.364 403.088 341.815C403.532 343.267 404.31 344.594 405.36 345.691C407.01 347.379 410.107 349.035 412.52 348.457C412.178 346.525 407.444 344.659 405.912 343.358Z" fill="black"/>
<path d="M535.974 237.671C535.974 237.671 521.957 229.549 503.455 239.642C484.954 249.734 481.87 309.126 481.87 309.126C481.87 309.126 489.438 369.634 460.259 356.171C460.259 356.171 407.004 339.646 401.672 343.286C401.672 343.286 396.622 343.286 406.714 345.527C416.807 347.767 455.795 360.113 455.795 360.113C455.795 360.113 468.399 364.515 473.737 360.113C479.076 355.711 494.205 360.678 496.171 330.414C497.472 311.343 499.811 292.356 503.179 273.539L508.38 258.131L535.974 237.671Z" fill="#565661"/>
<path d="M537.657 331.249C537.657 331.249 531.49 269.893 541.602 247.756C550.399 228.465 516.381 237.487 507.505 240.115C506.132 240.525 504.934 241.381 504.1 242.546C498.84 249.938 479.97 279.565 485.533 319.205C485.533 319.205 487.775 354.508 473.757 360.107L516.947 346.203C520.451 345.073 524.008 344.134 527.598 343.319C532.174 342.281 539.63 339.33 537.657 331.249Z" fill="white"/>
<path opacity="0.1" d="M650.881 450.557C686.263 450.557 714.946 445.953 714.946 440.274C714.946 434.595 686.263 429.991 650.881 429.991C615.499 429.991 586.817 434.595 586.817 440.274C586.817 445.953 615.499 450.557 650.881 450.557Z" fill="#7D65AF"/>
<path d="M652.939 243.282H648.817V336.039H652.939V243.282Z" fill="#535461"/>
<path d="M678.85 335.756L678.594 339.935L678.226 345.848L678.074 348.306L677.713 354.219L677.555 356.677L677.187 362.59L673.031 429.656C672.841 432.535 671.563 435.233 669.456 437.205C667.349 439.176 664.57 440.274 661.683 440.274H640.072C637.181 440.273 634.398 439.17 632.292 437.19C630.186 435.209 628.915 432.501 628.737 429.617L624.569 362.544L624.207 356.631L624.056 354.173L623.681 348.26L623.53 345.802L623.169 339.889L622.906 335.71C622.86 334.909 622.978 334.107 623.253 333.353C623.527 332.599 623.952 331.909 624.502 331.325C625.052 330.74 625.715 330.273 626.451 329.953C627.187 329.633 627.981 329.465 628.783 329.461H672.979C673.785 329.466 674.582 329.635 675.321 329.959C676.059 330.282 676.724 330.753 677.274 331.343C677.823 331.932 678.247 332.628 678.518 333.387C678.789 334.146 678.902 334.952 678.85 335.756V335.756Z" fill="#565661"/>
<path d="M678.594 339.935L678.226 345.829H623.537L623.169 339.935H678.594Z" fill="#9D9CB5"/>
<path d="M678.074 348.293L677.713 354.193H624.056L623.688 348.293H678.074Z" fill="#9D9CB5"/>
<path d="M677.555 356.651L677.187 362.544H624.576L624.207 356.651H677.555Z" fill="#9D9CB5"/>
<path d="M616.87 278.047C640.881 295.406 650.881 322.556 650.881 322.556C650.881 322.556 621.952 321.564 597.935 304.204C573.917 286.845 563.93 259.702 563.93 259.702C563.93 259.702 592.865 260.694 616.87 278.047Z" fill="#7D65AF"/>
<path d="M563.93 259.702C563.93 259.702 593.957 276.358 603.595 290.15C613.234 303.941 650.881 322.556 650.881 322.556" stroke="#535461" stroke-width="2" stroke-miterlimit="10"/>
<path d="M632.367 243.078C645.437 252.52 650.881 267.304 650.881 267.304C650.881 267.304 635.102 266.759 622.064 257.317C609.026 247.875 603.589 233.091 603.589 233.091C603.589 233.091 619.303 233.63 632.367 243.078Z" fill="#7D65AF"/>
<path d="M603.589 233.091C603.589 233.091 619.934 242.158 625.174 249.662C630.414 257.166 650.914 267.304 650.914 267.304" stroke="#535461" stroke-width="2" stroke-miterlimit="10"/>
<path d="M669.869 266.548C654.859 283.034 651.683 304.579 651.683 304.579C651.683 304.579 672.847 299.388 687.844 282.896C702.841 266.404 706.03 244.865 706.03 244.865C706.03 244.865 684.879 250.063 669.869 266.548Z" fill="#7D65AF"/>
<path d="M706.043 244.872C706.043 244.872 686.49 261.771 681.519 273.415C676.549 285.058 651.683 304.579 651.683 304.579" stroke="#535461" stroke-width="2" stroke-miterlimit="10"/>
<path d="M366.201 226.862V228.36H321.749V227.145C322.968 226.688 324.121 226.074 325.181 225.318C327.069 223.967 328.607 222.186 329.668 220.122C330.729 218.059 331.282 215.772 331.282 213.452C331.283 212.239 331.131 211.032 330.829 209.857C330.291 207.744 329.287 205.778 327.89 204.103C326.493 202.429 324.738 201.088 322.755 200.179H365.898C363.915 201.088 362.16 202.429 360.763 204.103C359.366 205.778 358.362 207.744 357.825 209.857C357.525 211.032 357.375 212.239 357.377 213.452C357.376 215.771 357.928 218.058 358.988 220.122C360.048 222.185 361.585 223.967 363.472 225.318C364.325 225.926 365.24 226.444 366.201 226.862V226.862Z" fill="#DFE6F5"/>
<path opacity="0.1" d="M365.898 200.179C363.915 201.088 362.16 202.429 360.763 204.103C359.366 205.778 358.362 207.744 357.825 209.857H330.829C330.291 207.744 329.287 205.778 327.89 204.103C326.493 202.429 324.738 201.088 322.755 200.179H365.898Z" fill="black"/>
<path d="M270.854 192.524V200.961C270.854 205.613 274.259 209.391 278.467 209.391H409.246C413.454 209.391 416.866 205.613 416.866 200.961V192.524H270.854Z" fill="#DFE6F5"/>
<path opacity="0.1" d="M366.201 226.862V228.36H321.749V227.145C322.968 226.688 324.121 226.074 325.181 225.318H363.472C364.325 225.926 365.24 226.444 366.201 226.862V226.862Z" fill="black"/>
<path d="M378.66 225.784H309.29C308.059 225.784 307.061 226.78 307.061 228.009C307.061 229.237 308.059 230.233 309.29 230.233H378.66C379.891 230.233 380.889 229.237 380.889 228.009C380.889 226.78 379.891 225.784 378.66 225.784Z" fill="#DFE6F5"/>
<path d="M416.866 100.122C416.866 99.1225 416.669 98.1326 416.286 97.209C415.903 96.2855 415.341 95.4464 414.634 94.7398C413.926 94.0332 413.086 93.4728 412.161 93.0908C411.237 92.7089 410.246 92.5127 409.246 92.5136H278.467C277.467 92.5127 276.477 92.7089 275.553 93.091C274.629 93.473 273.789 94.0335 273.082 94.7402C272.375 95.4469 271.814 96.286 271.431 97.2095C271.049 98.133 270.853 99.1228 270.854 100.122V194.167H416.866V100.122Z" fill="#474157"/>
<path d="M412.882 103.519V184.337C412.882 184.83 412.786 185.318 412.598 185.773C412.41 186.228 412.134 186.641 411.786 186.99C411.438 187.338 411.025 187.615 410.57 187.803C410.114 187.992 409.627 188.089 409.134 188.089H278.586C278.093 188.089 277.605 187.992 277.15 187.803C276.695 187.615 276.281 187.338 275.933 186.99C275.585 186.641 275.309 186.228 275.121 185.773C274.933 185.318 274.837 184.83 274.838 184.337V103.519C274.835 102.862 275.007 102.215 275.338 101.647C275.667 101.077 276.14 100.604 276.71 100.275C277.281 99.9466 277.927 99.7737 278.586 99.7742H409.134C410.128 99.7742 411.081 100.169 411.784 100.871C412.487 101.573 412.882 102.526 412.882 103.519V103.519Z" fill="#4C4C78"/>
<path d="M343.86 97.8949C344.829 97.8949 345.615 97.1095 345.615 96.1406C345.615 95.1717 344.829 94.3862 343.86 94.3862C342.89 94.3862 342.104 95.1717 342.104 96.1406C342.104 97.1095 342.89 97.8949 343.86 97.8949Z" fill="white"/>
<path d="M343.86 205.639C346.253 205.639 348.193 203.701 348.193 201.309C348.193 198.918 346.253 196.979 343.86 196.979C341.467 196.979 339.527 198.918 339.527 201.309C339.527 203.701 341.467 205.639 343.86 205.639Z" fill="white"/>
<path d="M412.882 103.519H274.851C274.851 102.526 275.246 101.573 275.949 100.871C276.652 100.169 277.605 99.7742 278.599 99.7742H409.134C410.128 99.7742 411.081 100.169 411.784 100.871C412.487 101.573 412.882 102.526 412.882 103.519Z" fill="#C8CAD7"/>
<path d="M278.586 102.586C279.105 102.586 279.526 102.166 279.526 101.647C279.526 101.128 279.105 100.707 278.586 100.707C278.066 100.707 277.645 101.128 277.645 101.647C277.645 102.166 278.066 102.586 278.586 102.586Z" fill="#D4CDD9"/>
<path d="M281.4 102.586C281.919 102.586 282.34 102.166 282.34 101.647C282.34 101.128 281.919 100.707 281.4 100.707C280.88 100.707 280.459 101.128 280.459 101.647C280.459 102.166 280.88 102.586 281.4 102.586Z" fill="#D4CDD9"/>
<path d="M284.214 102.586C284.733 102.586 285.154 102.166 285.154 101.647C285.154 101.128 284.733 100.707 284.214 100.707C283.694 100.707 283.273 101.128 283.273 101.647C283.273 102.166 283.694 102.586 284.214 102.586Z" fill="#D4CDD9"/>
</g>
<defs>
<linearGradient id="paint0_linear" x1="254.081" y1="307.332" x2="255.607" y2="307.332" gradientUnits="userSpaceOnUse">
<stop stop-color="#808080" stop-opacity="0.25"/>
<stop offset="0.54" stop-color="#808080" stop-opacity="0.12"/>
<stop offset="1" stop-color="#808080" stop-opacity="0.1"/>
</linearGradient>
<clipPath id="clip0">
<rect width="743" height="485" fill="white"/>
</clipPath>
</defs>
</svg>
