<svg width="1920" height="487" viewBox="0 0 1920 487" fill="none" xmlns="http://www.w3.org/2000/svg">
<path d="M0 115.026L64 139.019C128 162.654 256 211.18 384 239.667C512 268.693 640 277.679 768 254.045C896 230.051 1024 172.539 1152 129.404C1280 86.2693 1408 57.5129 1536 38.3719C1664 18.8714 1792 9.88502 1856 4.76278L1920 3.8147e-06V287.564H1856C1792 287.564 1664 287.564 1536 287.564C1408 287.564 1280 287.564 1152 287.564C1024 287.564 896 287.564 768 287.564C640 287.564 512 287.564 384 287.564C256 287.564 128 287.564 64 287.564H0L0 115.026Z" fill="#ecd5f1"/>
<path d="M0 471.021L64 463.226C128 454.843 256 440.135 384 431.752C512 423.957 640 423.957 768 439.694C896 454.843 1024 487.2 1152 486.758C1280 487.2 1408 454.843 1536 447.489C1664 440.135 1792 454.843 1856 463.226L1920 471.021V282.763H1856C1792 282.763 1664 282.763 1536 282.763C1408 282.763 1280 282.763 1152 282.763C1024 282.763 896 282.763 768 282.763C640 282.763 512 282.763 384 282.763C256 282.763 128 282.763 64 282.763H0V471.021Z" fill="#ecd5f1"/>
</svg>
